<svg width="43" height="43" viewBox="0 0 43 43" fill="none" xmlns="http://www.w3.org/2000/svg">
<mask id="mask0_1085_41152" style="mask-type:alpha" maskUnits="userSpaceOnUse" x="0" y="0" width="43" height="43">
<rect width="42.9938" height="42.9938" rx="9.48887" fill="#14272C"/>
</mask>
<g mask="url(#mask0_1085_41152)">
<rect width="42.9938" height="42.9938" rx="9.48887" fill="#4B53BC"/>
<path d="M22.3197 17.5338C24.1385 17.5338 25.6129 16.0581 25.6129 14.2376C25.6129 12.4172 24.1385 10.9414 22.3197 10.9414C20.5008 10.9414 19.0264 12.4172 19.0264 14.2376C19.0264 16.0581 20.5008 17.5338 22.3197 17.5338Z" fill="white"/>
<path d="M27.9653 19.535V26.2447C27.966 27.4881 27.5566 28.697 26.8006 29.6838C26.0447 30.6705 24.9845 31.38 23.7845 31.702C22.5845 32.0239 21.3119 31.9405 20.1642 31.4646C19.0165 30.9886 18.0578 30.1468 17.4369 29.0698C17.3011 28.8439 17.1832 28.6078 17.0841 28.3635C16.9917 28.1332 16.9139 27.8973 16.8512 27.6573C16.7349 27.1954 16.6756 26.721 16.6748 26.2447V19.535C16.6746 19.3958 16.7019 19.258 16.755 19.1294C16.8081 19.0007 16.8861 18.8839 16.9844 18.7855C17.0827 18.6871 17.1995 18.609 17.328 18.5559C17.4565 18.5027 17.5942 18.4754 17.7333 18.4756H26.9068C27.0459 18.4754 27.1836 18.5027 27.3121 18.5559C27.4406 18.609 27.5574 18.6871 27.6557 18.7855C27.754 18.8839 27.832 19.0007 27.8851 19.1294C27.9382 19.258 27.9655 19.3958 27.9653 19.535Z" fill="white" stroke="#4B53BC" stroke-width="0.902697"/>
<path d="M11.2649 15.6504H20.6741C20.9235 15.6504 21.1628 15.7496 21.3392 15.9261C21.5156 16.1027 21.6147 16.3422 21.6147 16.5919V26.0094C21.6147 26.2591 21.5156 26.4986 21.3392 26.6752C21.1628 26.8517 20.9235 26.9509 20.6741 26.9509H11.2649C11.0154 26.9509 10.7761 26.8517 10.5997 26.6752C10.4233 26.4986 10.3242 26.2591 10.3242 26.0094V16.5919C10.3242 16.3422 10.4233 16.1027 10.5997 15.9261C10.7761 15.7496 11.0154 15.6504 11.2649 15.6504Z" fill="white" stroke="#4B53BC" stroke-width="0.902697"/>
<path d="M18.7781 19.1648H16.6682V24.8292H15.2837V19.1648H13.1611V17.7734H18.7781V19.1648Z" fill="#4B53BC"/>
</g>
</svg>
