<svg width="20" height="20" viewBox="0 0 20 20" fill="none" xmlns="http://www.w3.org/2000/svg">
<path d="M9.43555 7.32422C9.43555 8.23226 9.88997 8.68636 10.7979 8.68652H16.2764V15.2412C16.2764 16.0273 16.0762 16.623 15.6758 17.0283C15.2754 17.4385 14.6826 17.6436 13.8965 17.6436H6.0957C5.30981 17.6435 4.71671 17.4413 4.31641 17.0361C3.91602 16.6309 3.71582 16.0322 3.71582 15.2412V4.18945C3.71582 3.40332 3.91602 2.80762 4.31641 2.40234C4.71671 1.99227 5.30981 1.78719 6.0957 1.78711H9.43555V7.32422ZM10.5127 1.86035C10.6787 1.87988 10.8447 1.94824 11.0107 2.06543C11.1816 2.18262 11.3574 2.33398 11.5381 2.51953L15.5371 6.57715C15.7275 6.77246 15.8789 6.95312 15.9912 7.11914C16.1084 7.28516 16.1768 7.45117 16.1963 7.61719H10.9297C10.6517 7.61702 10.5127 7.47738 10.5127 7.19922V1.86035Z" fill="#1E1E1E"/>
</svg>
