<svg width="43" height="43" viewBox="0 0 43 43" fill="none" xmlns="http://www.w3.org/2000/svg">
<mask id="mask0_1085_41095" style="mask-type:alpha" maskUnits="userSpaceOnUse" x="0" y="0" width="43" height="43">
<rect width="42.9938" height="42.9938" rx="9.48887" fill="#14272C"/>
</mask>
<g mask="url(#mask0_1085_41095)">
<rect width="42.9938" height="42.9938" rx="9.02697" fill="#00005B"/>
</g>
<g clip-path="url(#clip0_1085_41095)">
<path d="M12.5731 8.01367H30.5231C33.2446 8.01367 35.4449 10.214 35.4449 12.9354V30.1906C35.4449 32.912 33.2446 35.1124 30.5231 35.1124H12.5731C9.85169 35.1124 7.65137 32.912 7.65137 30.1906V12.9354C7.65137 10.214 9.85169 8.01367 12.5731 8.01367Z" fill="#00005B"/>
<path d="M18.8152 24.2267H14.5072L13.6271 26.9597C13.6039 27.064 13.5113 27.1334 13.4071 27.1219H11.2299C11.1025 27.1219 11.0678 27.0524 11.1025 26.9134L14.8315 16.2245C14.8662 16.1087 14.901 16.0044 14.9473 15.8655C14.9936 15.6223 15.0168 15.3675 15.0168 15.1127C15.0052 15.0548 15.0515 14.9969 15.1094 14.9854H15.1442H18.1088C18.1899 14.9854 18.2478 15.0201 18.2594 15.078L22.4863 26.8902C22.521 27.0176 22.4863 27.0755 22.3705 27.0755H19.9501C19.8691 27.0871 19.788 27.0292 19.7648 26.9481L18.8152 24.1688V24.2267ZM15.1789 21.9222H18.1204C18.0509 21.679 17.9583 21.3894 17.854 21.0883C17.7498 20.7757 17.6456 20.4398 17.5414 20.0924C17.4256 19.7334 17.3213 19.386 17.2055 19.027C17.0897 18.668 16.9855 18.3322 16.8928 17.9963C16.8002 17.6721 16.7191 17.371 16.6381 17.093H16.6149C16.5107 17.591 16.3833 18.089 16.2212 18.5869C16.0475 19.1428 15.8738 19.7218 15.6885 20.3009C15.5379 20.8915 15.3526 21.4358 15.1789 21.9222Z" fill="#9999FF"/>
<path d="M29.3068 23.1843H25.6358C25.6821 23.5433 25.7979 23.9023 25.9948 24.215C26.2032 24.5277 26.4927 24.7709 26.8402 24.9098C27.3034 25.1067 27.8129 25.2109 28.3225 25.1994C28.7278 25.1878 29.1331 25.153 29.5269 25.072C29.8859 25.0257 30.2333 24.933 30.5575 24.8056C30.6155 24.7593 30.6502 24.7825 30.6502 24.8983V26.6701C30.6502 26.7164 30.6386 26.7628 30.627 26.8091C30.6039 26.8438 30.5807 26.867 30.546 26.8901C30.1754 27.0523 29.7932 27.1681 29.3879 27.2376C28.8436 27.3418 28.2993 27.3881 27.7435 27.3765C26.8633 27.3765 26.1222 27.2376 25.52 26.9712C24.9525 26.728 24.4546 26.3458 24.0608 25.871C23.6902 25.4194 23.4239 24.9099 23.2617 24.354C23.0996 23.8097 23.0186 23.2422 23.0186 22.6632C23.0186 22.0379 23.1112 21.4241 23.3081 20.8219C23.4934 20.2429 23.7829 19.7101 24.1766 19.2353C24.5588 18.7721 25.0336 18.4015 25.5779 18.1352C26.1222 17.8688 26.7707 17.7762 27.5118 17.7762C28.1256 17.7646 28.7394 17.8804 29.3068 18.1352C29.7816 18.3436 30.1985 18.6563 30.5228 19.0616C30.8239 19.4554 31.0671 19.8954 31.2176 20.3818C31.3682 20.845 31.4377 21.3199 31.4377 21.7947C31.4377 22.0726 31.4261 22.3158 31.4145 22.5358C31.3914 22.7559 31.3798 22.918 31.3682 23.0222C31.3566 23.1033 31.2871 23.1728 31.2061 23.1728C31.1366 23.1728 31.0092 23.1843 30.8239 23.1959C30.6386 23.2191 30.4186 23.2307 30.1522 23.2307C29.8859 23.2307 29.6079 23.1843 29.3068 23.1843ZM25.6358 21.4936H28.0793C28.3804 21.4936 28.6004 21.4936 28.7394 21.482C28.832 21.4704 28.9247 21.4472 29.0057 21.3893V21.2735C29.0057 21.123 28.9826 20.984 28.9363 20.845C28.7278 20.1965 28.114 19.7565 27.4308 19.7796C26.7938 19.7449 26.1916 20.0807 25.8906 20.6598C25.7516 20.9261 25.6705 21.204 25.6358 21.4936Z" fill="#9999FF"/>
</g>
<defs>
<clipPath id="clip0_1085_41095">
<rect x="8.0127" y="8.01367" width="27.0987" height="27.0987" rx="13.5493" fill="white"/>
</clipPath>
</defs>
</svg>
