<svg width="43" height="43" viewBox="0 0 43 43" fill="none" xmlns="http://www.w3.org/2000/svg">
<mask id="mask0_1085_41102" style="mask-type:alpha" maskUnits="userSpaceOnUse" x="0" y="0" width="43" height="43">
<rect width="42.9938" height="42.9938" rx="9.48887" fill="#14272C"/>
</mask>
<g mask="url(#mask0_1085_41102)">
<rect width="42.9938" height="42.9938" rx="9.48887" fill="#001E36"/>
</g>
<g clip-path="url(#clip0_1085_41102)">
<path d="M11.8609 5.91162H32.0748C35.1395 5.91162 37.6173 8.45299 37.6173 11.5963V31.526C37.6173 34.6692 35.1395 37.2106 32.0748 37.2106H11.8609C8.7962 37.2106 6.31836 34.6692 6.31836 31.526V11.5963C6.31836 8.45299 8.7962 5.91162 11.8609 5.91162Z" fill="#001E36"/>
<path d="M13.3604 27.861V14.0975C13.3604 14.0039 13.3995 13.9504 13.4908 13.9504C13.7125 13.9504 13.9211 13.9504 14.2211 13.937C14.5341 13.9236 14.8601 13.9236 15.2122 13.9102C15.5643 13.8969 15.9425 13.8969 16.3468 13.8835C16.7511 13.8701 17.1423 13.8701 17.5335 13.8701C18.6029 13.8701 19.4897 14.0039 20.22 14.2848C20.8721 14.5121 21.472 14.8867 21.9676 15.3816C22.3849 15.8096 22.7109 16.3312 22.9196 16.9064C23.1152 17.4682 23.2195 18.0433 23.2195 18.6452C23.2195 19.7955 22.9587 20.7452 22.4371 21.4942C21.9154 22.2433 21.1851 22.805 20.3374 23.1261C19.4506 23.4604 18.4725 23.5808 17.4031 23.5808C17.0901 23.5808 16.8815 23.5808 16.7511 23.5675C16.6207 23.5541 16.4381 23.5541 16.1903 23.5541V27.8477C16.2033 27.9413 16.1381 28.0215 16.0468 28.0349C16.0338 28.0349 16.0208 28.0349 15.9947 28.0349H13.5168C13.4125 28.0349 13.3604 27.9814 13.3604 27.861ZM16.2033 16.5319V21.0261C16.3859 21.0395 16.5555 21.0528 16.712 21.0528H17.4031C17.9117 21.0528 18.4204 20.9726 18.9029 20.8121C19.3202 20.6917 19.6854 20.4376 19.9723 20.1032C20.2461 19.7688 20.3765 19.314 20.3765 18.7255C20.3896 18.3108 20.2853 17.8962 20.0766 17.535C19.8549 17.1873 19.5419 16.9198 19.1637 16.7726C18.6812 16.572 18.1595 16.4917 17.6248 16.5051C17.2858 16.5051 16.9858 16.5051 16.738 16.5185C16.4772 16.5051 16.2946 16.5185 16.2033 16.5319Z" fill="#31A8FF"/>
<path d="M31.3573 20.2104C30.966 19.9964 30.5487 19.8493 30.1053 19.7556C29.6228 19.6486 29.1403 19.5817 28.6447 19.5817C28.3839 19.5684 28.11 19.6085 27.8622 19.6754C27.6927 19.7155 27.5492 19.8091 27.4579 19.9429C27.3927 20.0499 27.3536 20.1836 27.3536 20.304C27.3536 20.4244 27.4058 20.5448 27.484 20.6518C27.6014 20.7989 27.7579 20.9193 27.9274 21.0129C28.2274 21.1734 28.5404 21.3206 28.8533 21.4543C29.5576 21.6951 30.2357 22.0295 30.8617 22.4307C31.2921 22.7116 31.6442 23.0862 31.892 23.5409C32.1006 23.9689 32.2049 24.4371 32.1919 24.9186C32.2049 25.5473 32.0224 26.1759 31.6833 26.6976C31.3181 27.2326 30.8095 27.6472 30.2227 27.888C29.5837 28.1689 28.8012 28.316 27.8622 28.316C27.2623 28.316 26.6755 28.2625 26.0886 28.1421C25.6322 28.0619 25.1757 27.9148 24.7584 27.7141C24.6671 27.6606 24.6019 27.567 24.6149 27.46V25.1326C24.6149 25.0925 24.628 25.039 24.6671 25.0122C24.7062 24.9855 24.7454 24.9989 24.7845 25.0256C25.2931 25.3333 25.8278 25.5473 26.4016 25.681C26.8972 25.8148 27.4188 25.8817 27.9405 25.8817C28.436 25.8817 28.7881 25.8148 29.0229 25.6944C29.2315 25.6008 29.375 25.3734 29.375 25.1326C29.375 24.9454 29.2707 24.7715 29.062 24.5976C28.8533 24.4237 28.423 24.2231 27.784 23.9689C27.1189 23.7282 26.5059 23.4072 25.9321 23.0059C25.5278 22.7116 25.1888 22.3237 24.941 21.869C24.7323 21.441 24.628 20.9728 24.641 20.5047C24.641 19.9295 24.7975 19.3811 25.0844 18.8862C25.4105 18.3512 25.893 17.9232 26.4538 17.6556C27.0667 17.3346 27.8361 17.1875 28.7621 17.1875C29.2967 17.1875 29.8445 17.2276 30.3792 17.3079C30.7704 17.3614 31.1486 17.4684 31.5007 17.6155C31.5529 17.6289 31.605 17.6824 31.6311 17.7359C31.6442 17.7894 31.6572 17.8429 31.6572 17.8964V20.0766C31.6572 20.1301 31.6311 20.1836 31.592 20.2104C31.4746 20.2371 31.4094 20.2371 31.3573 20.2104Z" fill="#31A8FF"/>
</g>
<defs>
<clipPath id="clip0_1085_41102">
<rect x="6.31836" y="6.31836" width="30.486" height="30.486" rx="15.243" fill="white"/>
</clipPath>
</defs>
</svg>
