<svg width="43" height="43" viewBox="0 0 43 43" fill="none" xmlns="http://www.w3.org/2000/svg">
<mask id="mask0_1085_41088" style="mask-type:alpha" maskUnits="userSpaceOnUse" x="0" y="0" width="43" height="43">
<rect width="42.9938" height="42.9938" rx="9.48887" fill="#14272C"/>
</mask>
<g mask="url(#mask0_1085_41088)">
<rect width="42.9938" height="42.9938" rx="9.48887" fill="#00005B"/>
</g>
<g clip-path="url(#clip0_1085_41088)">
<path d="M12.9345 8.01367H30.8844C33.6059 8.01367 35.8062 10.214 35.8062 12.9354V30.1906C35.8062 32.912 33.6059 35.1124 30.8844 35.1124H12.9345C10.213 35.1124 8.0127 32.912 8.0127 30.1906V12.9354C8.0127 10.214 10.213 8.01367 12.9345 8.01367Z" fill="#00005B"/>
<path d="M14.6133 27.0058V15.0777C14.6133 14.9967 14.648 14.9503 14.7291 14.9503C14.926 14.9503 15.1112 14.9503 15.3776 14.9388C15.6555 14.9272 15.9451 14.9272 16.2577 14.9156C16.5704 14.904 16.9062 14.904 17.2652 14.8924C17.6242 14.8809 17.9717 14.8809 18.3191 14.8809C19.2687 14.8809 20.0562 14.9967 20.7047 15.2399C21.2837 15.4367 21.8164 15.761 22.2565 16.1895C22.6271 16.5601 22.9166 17.0117 23.1019 17.5097C23.2756 17.996 23.3682 18.494 23.3682 19.0151C23.3682 20.0111 23.1366 20.8333 22.6734 21.4818C22.2102 22.1303 21.5617 22.6167 20.8089 22.8947C20.0214 23.1842 19.1529 23.2884 18.2033 23.2884C17.9253 23.2884 17.7401 23.2884 17.6242 23.2768C17.5084 23.2652 17.3463 23.2652 17.1263 23.2652V26.9826C17.1379 27.0637 17.08 27.1332 16.9989 27.1447H16.9526H14.7522C14.6596 27.1447 14.6133 27.0984 14.6133 26.9942V27.0058ZM17.1379 17.197V21.0881C17.3 21.0997 17.4505 21.1112 17.5895 21.1112H18.2033C18.6549 21.1112 19.1066 21.0418 19.5351 20.9028C19.9056 20.7986 20.2299 20.5785 20.4847 20.289C20.7279 19.9995 20.8437 19.6058 20.8437 19.0962C20.8552 18.7372 20.7626 18.3782 20.5773 18.0655C20.3804 17.7644 20.1025 17.5328 19.7667 17.4054C19.3382 17.2317 18.875 17.1622 18.4001 17.1738C18.0991 17.1738 17.8327 17.1738 17.6127 17.1854C17.3811 17.1738 17.2189 17.1854 17.1379 17.197Z" fill="#9999FF"/>
<path d="M25.036 17.8805H27.0626C27.1784 17.8805 27.2711 17.9615 27.3058 18.0658C27.3405 18.1584 27.3637 18.2511 27.3753 18.3553C27.3984 18.4711 27.4216 18.5985 27.4332 18.7143C27.4448 18.8417 27.4563 18.9806 27.4563 19.1312C27.8038 18.7259 28.2207 18.39 28.6955 18.1352C29.2282 17.8342 29.842 17.6836 30.4557 17.6836C30.5368 17.672 30.6063 17.7299 30.6179 17.811V17.8573V20.1155C30.6179 20.2082 30.56 20.2429 30.4326 20.2429C30.0157 20.2313 29.5872 20.2661 29.1819 20.3587C28.846 20.4282 28.5218 20.5324 28.2091 20.6714C27.9891 20.7756 27.7806 20.9146 27.6185 21.0999V27.006C27.6185 27.1218 27.5722 27.1681 27.4679 27.1681H25.1865C25.0939 27.1797 25.0128 27.1218 25.0013 27.0292V26.9829V20.5672C25.0013 20.2892 25.0013 19.9997 24.9897 19.6986C24.9781 19.3975 24.9781 19.0964 24.9665 18.7953C24.9665 18.529 24.9433 18.2742 24.9202 18.0079C24.9086 17.95 24.9433 17.8921 25.0013 17.8805C25.0013 17.8689 25.0244 17.8689 25.036 17.8805Z" fill="#9999FF"/>
</g>
<defs>
<clipPath id="clip0_1085_41088">
<rect x="8.0127" y="8.01367" width="27.0987" height="27.0987" rx="13.5493" fill="white"/>
</clipPath>
</defs>
</svg>
