<svg width="43" height="43" viewBox="0 0 43 43" fill="none" xmlns="http://www.w3.org/2000/svg">
<mask id="mask0_1085_41109" style="mask-type:alpha" maskUnits="userSpaceOnUse" x="0" y="0" width="43" height="43">
<rect width="42.9938" height="42.9938" rx="9.48887" fill="#14272C"/>
</mask>
<g mask="url(#mask0_1085_41109)">
<rect width="42.9938" height="42.9938" rx="9.02697" fill="#FECF2F"/>
</g>
<g clip-path="url(#clip0_1085_41109)">
<path d="M7.82227 22.7564C7.82227 31.0048 14.5089 37.6914 22.7573 37.6914C31.0057 37.6914 37.6924 31.0048 37.6924 22.7564C37.6924 14.5079 31.0057 7.82129 22.7573 7.82129C14.5089 7.82129 7.82227 14.5079 7.82227 22.7564Z" fill="#FFD02F"/>
<path d="M26.46 14.1934H23.9961L26.1835 17.6233L21.5594 14.1934H19.0955L21.2829 18.6876L16.6582 14.1934H14.1943L16.3456 19.9957L14.1943 31.3189H16.6582L21.2829 19.1778L19.0955 31.3189H21.5594L26.1835 18.1135L23.9961 31.3189H26.46L31.1207 16.8133L26.46 14.1934Z" fill="#050038"/>
</g>
<defs>
<clipPath id="clip0_1085_41109">
<rect x="7.82227" y="7.82129" width="29.8701" height="29.8701" rx="14.9351" fill="white"/>
</clipPath>
</defs>
</svg>
