<svg width="43" height="43" viewBox="0 0 43 43" fill="none" xmlns="http://www.w3.org/2000/svg">
<mask id="mask0_1085_41124" style="mask-type:alpha" maskUnits="userSpaceOnUse" x="0" y="0" width="43" height="43">
<rect width="42.94" height="42.94" rx="9.477" fill="#14272C"/>
</mask>
<g mask="url(#mask0_1085_41124)">
<rect width="42.94" height="42.94" rx="9.01567" fill="#0D63DD"/>
<g opacity="0.22">
<g opacity="0.4" filter="url(#filter0_f_1085_41124)">
<path d="M41.7246 9.72873C41.7246 5.0741 38.8591 3.6204 38.2022 2.89355C38.6774 3.99781 40.0892 7.42239 40.0892 9.72873L40.0892 31.9955C40.0892 34.3773 39.2785 38.4672 38.9989 39.6693C39.4602 38.9285 41.7246 37.5307 41.7246 31.9955L41.7246 9.72873Z" fill="#1E1E1E"/>
</g>
<g opacity="0.8" filter="url(#filter1_f_1085_41124)">
<path d="M9.30938 1.21582C7.02819 1.21582 5.00419 2.52974 4.27734 3.1867C5.3816 2.71145 7.0869 1.76096 9.30938 1.76096H31.5761C33.958 1.76096 36.9576 2.32007 38.1597 2.59963C37.4189 2.13836 35.065 1.21582 31.5761 1.21582H9.30938Z" fill="#1E1E1E"/>
</g>
</g>
<rect x="10.0039" y="10.0039" width="23.086" height="23.086" rx="11.543" fill="white"/>
<path fill-rule="evenodd" clip-rule="evenodd" d="M26.7808 14.6216H16.2613C15.3563 14.6216 14.6223 15.3546 14.6211 16.2595V26.7635C14.6194 27.1997 14.7914 27.6186 15.0992 27.9276C15.4069 28.2366 15.8251 28.4103 16.2613 28.4103H26.7808C27.2165 28.4097 27.6341 28.2358 27.9414 27.9268C28.2487 27.6179 28.4205 27.1993 28.4187 26.7635V16.2595C28.4175 15.3554 27.6848 14.6228 26.7808 14.6216ZM20.5716 24.5531C20.5711 24.6989 20.5124 24.8384 20.4087 24.9408C20.305 25.0433 20.1648 25.1002 20.019 25.0991H17.7202C17.4195 25.0979 17.1764 24.8538 17.1764 24.5531V17.7118C17.1764 17.4111 17.4195 17.167 17.7202 17.1658H20.019C20.3201 17.167 20.5638 17.4107 20.565 17.7118L20.5716 24.5531ZM25.8767 21.412C25.8767 21.558 25.8183 21.6979 25.7144 21.8005C25.6106 21.9031 25.47 21.9598 25.3241 21.9581H23.0252C22.7242 21.9568 22.4804 21.7131 22.4792 21.412V17.7118C22.4804 17.4107 22.7242 17.167 23.0252 17.1658H25.3241C25.6247 17.167 25.8679 17.4111 25.8679 17.7118L25.8767 21.412Z" fill="url(#paint0_linear_1085_41124)"/>
</g>
<defs>
<filter id="filter0_f_1085_41124" x="37.4473" y="2.13875" width="5.03207" height="38.2855" filterUnits="userSpaceOnUse" color-interpolation-filters="sRGB">
<feFlood flood-opacity="0" result="BackgroundImageFix"/>
<feBlend mode="normal" in="SourceGraphic" in2="BackgroundImageFix" result="shape"/>
<feGaussianBlur stdDeviation="0.377403" result="effect1_foregroundBlur_1085_41124"/>
</filter>
<filter id="filter1_f_1085_41124" x="3.69027" y="0.62875" width="35.057" height="3.14484" filterUnits="userSpaceOnUse" color-interpolation-filters="sRGB">
<feFlood flood-opacity="0" result="BackgroundImageFix"/>
<feBlend mode="normal" in="SourceGraphic" in2="BackgroundImageFix" result="shape"/>
<feGaussianBlur stdDeviation="0.293535" result="effect1_foregroundBlur_1085_41124"/>
</filter>
<linearGradient id="paint0_linear_1085_41124" x1="21.5265" y1="28.4103" x2="21.5265" y2="14.6216" gradientUnits="userSpaceOnUse">
<stop stop-color="#0052CC"/>
<stop offset="1" stop-color="#2684FF"/>
</linearGradient>
</defs>
</svg>
